<svg xmlns="http://www.w3.org/2000/svg" width="46.5" height="46.5" viewBox="0 0 46.5 46.5">
  <defs>
    <style>
      .cls-1 {
        fill-rule: evenodd;
      }
    </style>
  </defs>
  <path id="clock" class="cls-1" d="M640.406,1556.88a23.212,23.212,0,1,0,6.8-16.45A22.395,22.395,0,0,0,640.406,1556.88Zm4.5,0a18.719,18.719,0,1,1,5.485,13.27A18.042,18.042,0,0,1,644.906,1556.88Zm26.157,8.72,1.687-2.44a1.033,1.033,0,0,0-.187-1.59l-6.282-4.5v-13.31a1,1,0,0,0-1.125-1.13h-3a1,1,0,0,0-1.125,1.13v15.37a1.151,1.151,0,0,0,.469.94l7.969,5.81a1.008,1.008,0,0,0,1.594-.28h0Z" transform="translate(-640.406 -1533.63)"/>
</svg>
